<svg width="1280" height="720" viewBox="0 0 1280 720" fill="none" xmlns="http://www.w3.org/2000/svg">
  <rect width="1280" height="720" fill="#0B1220"/>
  <rect x="40" y="32" width="1200" height="656" rx="24" fill="#F8FAFC"/>
  <rect x="40" y="32" width="1200" height="64" rx="24" fill="#E2E8F0"/>
  <circle cx="86" cy="64" r="9" fill="#EF4444"/>
  <circle cx="114" cy="64" r="9" fill="#F59E0B"/>
  <circle cx="142" cy="64" r="9" fill="#10B981"/>
  <text x="180" y="71" fill="#0F172A" font-family="Arial, Helvetica, sans-serif" font-size="24" font-weight="700">Info Security Analyzer — demo report preview</text>

  <rect x="84" y="132" width="1112" height="78" rx="16" fill="#DBEAFE"/>
  <text x="108" y="168" fill="#1D4ED8" font-family="Arial, Helvetica, sans-serif" font-size="28" font-weight="700">Built-in demo mode</text>
  <text x="108" y="194" fill="#1E40AF" font-family="Arial, Helvetica, sans-serif" font-size="18">Preview the report UI and capture screenshots locally without API keys.</text>

  <rect x="84" y="238" width="340" height="392" rx="18" fill="#FFFFFF" stroke="#CBD5E1" stroke-width="2"/>
  <text x="112" y="280" fill="#0F172A" font-family="Arial, Helvetica, sans-serif" font-size="26" font-weight="700">Top Risks</text>
  <rect x="112" y="306" width="148" height="30" rx="15" fill="#FEE2E2"/>
  <text x="133" y="327" fill="#B91C1C" font-family="Arial, Helvetica, sans-serif" font-size="16" font-weight="700">2 Critical</text>
  <rect x="112" y="354" width="284" height="72" rx="14" fill="#FFF1F2"/>
  <text x="132" y="384" fill="#0F172A" font-family="Arial, Helvetica, sans-serif" font-size="18" font-weight="700">etcd</text>
  <text x="132" y="410" fill="#475569" font-family="Arial, Helvetica, sans-serif" font-size="15">Encrypt data at rest and lock down access.</text>
  <rect x="112" y="442" width="284" height="72" rx="14" fill="#FFF7ED"/>
  <text x="132" y="472" fill="#0F172A" font-family="Arial, Helvetica, sans-serif" font-size="18" font-weight="700">Container Runtime</text>
  <text x="132" y="498" fill="#475569" font-family="Arial, Helvetica, sans-serif" font-size="15">Apply seccomp/AppArmor and drop excess caps.</text>
  <rect x="112" y="530" width="284" height="72" rx="14" fill="#F8FAFC"/>
  <text x="132" y="560" fill="#0F172A" font-family="Arial, Helvetica, sans-serif" font-size="18" font-weight="700">API Server</text>
  <text x="132" y="586" fill="#475569" font-family="Arial, Helvetica, sans-serif" font-size="15">Strengthen auth, RBAC, and rate limiting.</text>

  <rect x="452" y="238" width="744" height="188" rx="18" fill="#FFFFFF" stroke="#CBD5E1" stroke-width="2"/>
  <text x="480" y="280" fill="#0F172A" font-family="Arial, Helvetica, sans-serif" font-size="26" font-weight="700">Severity Breakdown</text>
  <rect x="480" y="318" width="116" height="30" rx="15" fill="#FEE2E2"/>
  <text x="507" y="339" fill="#B91C1C" font-family="Arial, Helvetica, sans-serif" font-size="16" font-weight="700">Critical</text>
  <rect x="608" y="318" width="230" height="22" rx="11" fill="#EF4444"/>
  <rect x="480" y="358" width="116" height="30" rx="15" fill="#FFEDD5"/>
  <text x="523" y="379" fill="#C2410C" font-family="Arial, Helvetica, sans-serif" font-size="16" font-weight="700">High</text>
  <rect x="608" y="358" width="174" height="22" rx="11" fill="#F97316"/>
  <rect x="852" y="318" width="316" height="70" rx="14" fill="#EFF6FF"/>
  <text x="876" y="348" fill="#0F172A" font-family="Arial, Helvetica, sans-serif" font-size="18" font-weight="700">Screenshot-friendly path</text>
  <text x="876" y="372" fill="#475569" font-family="Arial, Helvetica, sans-serif" font-size="15">Run npm install && npm run dev</text>
  <text x="876" y="392" fill="#475569" font-family="Arial, Helvetica, sans-serif" font-size="15">Open localhost:5173 and click “Load Demo Report”.</text>

  <rect x="452" y="450" width="744" height="180" rx="18" fill="#FFFFFF" stroke="#CBD5E1" stroke-width="2"/>
  <text x="480" y="492" fill="#0F172A" font-family="Arial, Helvetica, sans-serif" font-size="26" font-weight="700">Recommended Next Steps</text>
  <circle cx="498" cy="536" r="8" fill="#10B981"/>
  <text x="520" y="542" fill="#334155" font-family="Arial, Helvetica, sans-serif" font-size="17">Harden etcd access and encrypt secrets at rest</text>
  <circle cx="498" cy="576" r="8" fill="#10B981"/>
  <text x="520" y="582" fill="#334155" font-family="Arial, Helvetica, sans-serif" font-size="17">Apply pod security standards and runtime restrictions</text>
  <circle cx="498" cy="616" r="8" fill="#10B981"/>
  <text x="520" y="622" fill="#334155" font-family="Arial, Helvetica, sans-serif" font-size="17">Use the demo report to capture README screenshots before live creds</text>
</svg>
